<svg width="85" height="84" viewBox="0 0 85 84" fill="none" xmlns="http://www.w3.org/2000/svg">
<rect x="0.5" y="5.5" width="84" height="78" rx="1.5" fill="#F8F8F8"/>
<rect x="0.5" y="5.5" width="84" height="78" rx="1.5" stroke="#CFCFCF"/>
<rect x="6" y="9" width="12" height="3" rx="0.5" fill="#E4E4E4"/>
<rect x="67" y="9" width="12" height="3" rx="0.5" fill="#E4E4E4"/>
<rect x="6" y="24" width="35" height="4" rx="0.5" fill="#E4E4E4"/>
<rect x="6" y="30" width="20" height="4" rx="0.5" fill="#E4E4E4"/>
<rect x="6" y="46" width="32" height="32" rx="1" fill="#E4E4E4"/>
<rect x="47" y="46" width="32" height="32" rx="1" fill="#E4E4E4"/>
<rect x="47" y="46" width="32" height="32" stroke="#4D99F2" stroke-width="1.5"/>
<rect x="45.4419" y="44.4414" width="3" height="3" fill="white" stroke="#4D99F2"/>
<rect x="77.1396" y="44.4414" width="3" height="3" fill="white" stroke="#4D99F2"/>
<rect x="45.4419" y="76.1396" width="3" height="3" fill="white" stroke="#4D99F2"/>
<rect x="77.1396" y="76.1396" width="3" height="3" fill="white" stroke="#4D99F2"/>
<rect width="17" height="3" rx="0.5" fill="#E4E4E4"/>
</svg>
