<svg width="256" height="36" viewBox="0 0 256 36" fill="none" xmlns="http://www.w3.org/2000/svg">
<rect x="0.5625" y="0.5625" width="254.875" height="34.875" rx="6.1875" fill="white"/>
<rect x="0.5625" y="0.5625" width="254.875" height="34.875" rx="6.1875" stroke="#E5E5E5" stroke-width="1.125"/>
<circle cx="20.8125" cy="16.3125" r="4.5" stroke="#A3A3A3" stroke-width="1.125"/>
<path d="M28.125 23.625L23.625 19.125" stroke="#A3A3A3" stroke-width="1.125"/>
<path d="M51.0117 15.375C50.959 14.9297 50.7451 14.584 50.3701 14.3379C49.9951 14.0918 49.5352 13.9687 48.9902 13.9687C48.5918 13.9687 48.2432 14.0332 47.9443 14.1621C47.6484 14.291 47.417 14.4683 47.25 14.6938C47.0859 14.9194 47.0039 15.1758 47.0039 15.4629C47.0039 15.7031 47.061 15.9097 47.1753 16.0825C47.2925 16.2524 47.4419 16.3945 47.6235 16.5088C47.8052 16.6201 47.9956 16.7124 48.1948 16.7856C48.394 16.856 48.5771 16.9131 48.7441 16.957L49.6582 17.2031C49.8926 17.2646 50.1533 17.3496 50.4404 17.458C50.7305 17.5664 51.0073 17.7144 51.271 17.9019C51.5376 18.0864 51.7573 18.3237 51.9302 18.6138C52.103 18.9038 52.1895 19.2598 52.1895 19.6816C52.1895 20.168 52.062 20.6074 51.8071 21C51.5552 21.3926 51.186 21.7046 50.6997 21.936C50.2163 22.1675 49.6289 22.2832 48.9375 22.2832C48.293 22.2832 47.7349 22.1792 47.2632 21.9712C46.7944 21.7632 46.4253 21.4731 46.1558 21.1011C45.8892 20.729 45.7383 20.2969 45.7031 19.8047H46.8281C46.8574 20.1445 46.9717 20.4258 47.1709 20.6484C47.373 20.8682 47.6279 21.0322 47.9355 21.1406C48.2461 21.2461 48.5801 21.2988 48.9375 21.2988C49.3535 21.2988 49.7271 21.2314 50.0581 21.0967C50.3892 20.959 50.6514 20.7686 50.8447 20.5254C51.0381 20.2793 51.1348 19.9922 51.1348 19.6641C51.1348 19.3652 51.0513 19.1221 50.8843 18.9346C50.7173 18.7471 50.4976 18.5947 50.2251 18.4775C49.9526 18.3604 49.6582 18.2578 49.3418 18.1699L48.2344 17.8535C47.5313 17.6514 46.9746 17.3628 46.5645 16.9878C46.1543 16.6128 45.9492 16.1221 45.9492 15.5156C45.9492 15.0117 46.0854 14.5723 46.3579 14.1973C46.6333 13.8193 47.0024 13.5264 47.4653 13.3184C47.9312 13.1074 48.4512 13.002 49.0254 13.002C49.6055 13.002 50.1211 13.106 50.5723 13.314C51.0234 13.519 51.3809 13.8003 51.6445 14.1577C51.9111 14.5151 52.0518 14.9209 52.0664 15.375H51.0117ZM56.6708 22.2656C56.0204 22.2656 55.4594 22.1221 54.9877 21.835C54.5189 21.5449 54.1571 21.1406 53.9022 20.6221C53.6503 20.1006 53.5243 19.4941 53.5243 18.8027C53.5243 18.1113 53.6503 17.502 53.9022 16.9746C54.1571 16.4443 54.5116 16.0312 54.9657 15.7354C55.4227 15.4365 55.9559 15.2871 56.5653 15.2871C56.9169 15.2871 57.264 15.3457 57.6068 15.4629C57.9496 15.5801 58.2616 15.7705 58.5428 16.0342C58.8241 16.2949 59.0482 16.6406 59.2152 17.0713C59.3822 17.502 59.4657 18.0322 59.4657 18.6621V19.1016H54.2626V18.2051H58.411C58.411 17.8242 58.3348 17.4844 58.1825 17.1855C58.0331 16.8867 57.8192 16.6509 57.5409 16.478C57.2655 16.3052 56.9403 16.2187 56.5653 16.2187C56.1522 16.2187 55.7948 16.3213 55.493 16.5264C55.1942 16.7285 54.9642 16.9922 54.8031 17.3174C54.642 17.6426 54.5614 17.9912 54.5614 18.3633V18.9609C54.5614 19.4707 54.6493 19.9028 54.8251 20.2573C55.0038 20.6089 55.2513 20.877 55.5677 21.0615C55.8842 21.2432 56.2518 21.334 56.6708 21.334C56.9432 21.334 57.1893 21.2959 57.4091 21.2197C57.6317 21.1406 57.8236 21.0234 57.9847 20.8682C58.1459 20.71 58.2704 20.5137 58.3583 20.2793L59.3602 20.5605C59.2548 20.9004 59.0775 21.1992 58.8285 21.457C58.5795 21.7119 58.2719 21.9111 57.9056 22.0547C57.5394 22.1953 57.1278 22.2656 56.6708 22.2656ZM63.0297 22.2832C62.6019 22.2832 62.2137 22.2026 61.8651 22.0415C61.5165 21.8774 61.2396 21.6416 61.0345 21.334C60.8295 21.0234 60.7269 20.6484 60.7269 20.209C60.7269 19.8223 60.8031 19.5088 60.9554 19.2686C61.1078 19.0254 61.3114 18.835 61.5663 18.6973C61.8212 18.5596 62.1024 18.457 62.41 18.3896C62.7206 18.3193 63.0326 18.2637 63.3461 18.2227C63.7562 18.1699 64.0887 18.1304 64.3436 18.104C64.6014 18.0747 64.7889 18.0264 64.9061 17.959C65.0262 17.8916 65.0863 17.7744 65.0863 17.6074V17.5723C65.0863 17.1387 64.9677 16.8018 64.7303 16.5615C64.496 16.3213 64.14 16.2012 63.6625 16.2012C63.1674 16.2012 62.7792 16.3096 62.4979 16.5264C62.2167 16.7432 62.0189 16.9746 61.9047 17.2207L60.9203 16.8691C61.0961 16.459 61.3304 16.1396 61.6234 15.9111C61.9193 15.6797 62.2416 15.5186 62.5902 15.4277C62.9418 15.334 63.2875 15.2871 63.6273 15.2871C63.8441 15.2871 64.0931 15.3135 64.3744 15.3662C64.6586 15.416 64.9325 15.52 65.1962 15.6782C65.4628 15.8364 65.684 16.0752 65.8597 16.3945C66.0355 16.7139 66.1234 17.1416 66.1234 17.6777V22.125H65.0863V21.2109H65.0336C64.9633 21.3574 64.8461 21.5142 64.682 21.6812C64.5179 21.8481 64.2997 21.9902 64.0272 22.1074C63.7548 22.2246 63.4222 22.2832 63.0297 22.2832ZM63.1879 21.3516C63.598 21.3516 63.9437 21.271 64.225 21.1099C64.5092 20.9487 64.723 20.7407 64.8666 20.4858C65.0131 20.231 65.0863 19.9629 65.0863 19.6816V18.7324C65.0424 18.7852 64.9457 18.8335 64.7963 18.8774C64.6498 18.9185 64.4799 18.9551 64.2865 18.9873C64.0961 19.0166 63.91 19.043 63.7284 19.0664C63.5497 19.0869 63.4047 19.1045 63.2933 19.1191C63.0238 19.1543 62.7719 19.2114 62.5375 19.2905C62.306 19.3667 62.1185 19.4824 61.975 19.6377C61.8344 19.79 61.764 19.998 61.764 20.2617C61.764 20.6221 61.8973 20.8945 62.1639 21.0791C62.4335 21.2607 62.7748 21.3516 63.1879 21.3516ZM68.0164 22.125V15.375H69.0183V16.3945H69.0886C69.2117 16.0605 69.4343 15.7896 69.7566 15.5815C70.0789 15.3735 70.4421 15.2695 70.8464 15.2695C70.9226 15.2695 71.0178 15.271 71.1321 15.2739C71.2463 15.2769 71.3328 15.2812 71.3914 15.2871V16.3418C71.3562 16.333 71.2756 16.3198 71.1497 16.3022C71.0266 16.2817 70.8962 16.2715 70.7585 16.2715C70.4304 16.2715 70.1375 16.3403 69.8796 16.478C69.6248 16.6128 69.4226 16.8003 69.2732 17.0405C69.1267 17.2778 69.0535 17.5488 69.0535 17.8535V22.125H68.0164ZM75.1575 22.2656C74.5247 22.2656 73.9797 22.1162 73.5227 21.8174C73.0657 21.5186 72.7141 21.1069 72.468 20.5825C72.2219 20.0581 72.0989 19.459 72.0989 18.7852C72.0989 18.0996 72.2249 17.4946 72.4768 16.9702C72.7317 16.4429 73.0862 16.0312 73.5403 15.7354C73.9973 15.4365 74.5305 15.2871 75.1399 15.2871C75.6145 15.2871 76.0422 15.375 76.4231 15.5508C76.804 15.7266 77.116 15.9727 77.3591 16.2891C77.6023 16.6055 77.7532 16.9746 77.8118 17.3965H76.7747C76.6956 17.0889 76.5198 16.8164 76.2473 16.5791C75.9778 16.3389 75.6145 16.2187 75.1575 16.2187C74.7532 16.2187 74.3987 16.3242 74.094 16.5352C73.7922 16.7432 73.5564 17.0376 73.3865 17.4185C73.2195 17.7964 73.136 18.2402 73.136 18.75C73.136 19.2715 73.218 19.7256 73.3821 20.1123C73.5491 20.499 73.7834 20.7993 74.0852 21.0132C74.3899 21.2271 74.7473 21.334 75.1575 21.334C75.427 21.334 75.6716 21.2871 75.8914 21.1934C76.1111 21.0996 76.2971 20.9648 76.4495 20.7891C76.6018 20.6133 76.7102 20.4023 76.7747 20.1563H77.8118C77.7532 20.5547 77.6082 20.9136 77.3767 21.2329C77.1482 21.5493 76.845 21.8013 76.467 21.9888C76.092 22.1733 75.6555 22.2656 75.1575 22.2656ZM80.365 18.0645V22.125H79.3279V13.125H80.365V16.4297H80.4529C80.6111 16.0811 80.8484 15.8042 81.1648 15.5991C81.4841 15.3911 81.9089 15.2871 82.4392 15.2871C82.8992 15.2871 83.302 15.3794 83.6477 15.564C83.9934 15.7456 84.2615 16.0254 84.4519 16.4033C84.6453 16.7783 84.7419 17.2559 84.7419 17.8359V22.125H83.7048V17.9062C83.7048 17.3701 83.5657 16.9556 83.2874 16.6626C83.012 16.3667 82.6296 16.2187 82.1404 16.2187C81.8005 16.2187 81.4958 16.2905 81.2263 16.4341C80.9597 16.5776 80.7488 16.7871 80.5935 17.0625C80.4412 17.3379 80.365 17.6719 80.365 18.0645Z" fill="#A3A3A3"/>
<path d="M239.125 12.375L238.321 13.1586L242.584 17.4375H231.25V18.5625H242.584L238.321 22.8223L239.125 23.625L244.75 18L239.125 12.375Z" fill="#A3A3A3"/>
</svg>
