<svg width="16" height="16" viewBox="0 0 16 16" fill="none" xmlns="http://www.w3.org/2000/svg">
    <g>
        <rect width="16" height="16" fill="var(--bg-color-elev-0)" rx="2" />
        <path
            d="M1.924 14C1.84333 14 1.77733 13.9743 1.726 13.923C1.67467 13.8717 1.649 13.8057 1.649 13.725V6.465C1.649 6.38433 1.67467 6.31833 1.726 6.267C1.77733 6.21567 1.84333 6.19 1.924 6.19H3.2C3.27333 6.19 3.33567 6.21567 3.387 6.267C3.44567 6.31833 3.475 6.38433 3.475 6.465V10.15L5.004 8.467C5.048 8.41567 5.09567 8.37167 5.147 8.335C5.19833 8.29833 5.27167 8.28 5.367 8.28H6.841C6.907 8.28 6.962 8.30567 7.006 8.357C7.05733 8.401 7.083 8.456 7.083 8.522C7.083 8.55133 7.07567 8.58433 7.061 8.621C7.04633 8.65767 7.02433 8.687 6.995 8.709L5.015 10.843L7.27 13.582C7.32867 13.6407 7.358 13.6993 7.358 13.758C7.358 13.824 7.33233 13.8827 7.281 13.934C7.237 13.978 7.17833 14 7.105 14H5.598C5.488 14 5.40733 13.9817 5.356 13.945C5.30467 13.901 5.257 13.857 5.213 13.813L3.475 11.723V13.725C3.475 13.8057 3.44567 13.8717 3.387 13.923C3.33567 13.9743 3.27333 14 3.2 14H1.924ZM7.99282 11.492C7.91215 11.492 7.84615 11.4663 7.79482 11.415C7.74349 11.3637 7.71782 11.2977 7.71782 11.217V10.183C7.71782 10.1023 7.74349 10.0363 7.79482 9.985C7.84615 9.93367 7.91215 9.908 7.99282 9.908H12.4258C12.5065 9.908 12.5725 9.93367 12.6238 9.985C12.6752 10.0363 12.7008 10.1023 12.7008 10.183V11.217C12.7008 11.2977 12.6752 11.3637 12.6238 11.415C12.5725 11.4663 12.5065 11.492 12.4258 11.492H7.99282Z"
            fill="var(--highlight-color)" />
    </g>
    <style>
        :root {
            --highlight-color: white;
            --bg-color-elev-0: #F9B61F;
        }

        @media (prefers-color-scheme: dark) {
            :root {
                --highlight-color: #1c1c1c;
                --bg-color-elev-0: white;
            }
        }
    </style>
</svg>